<?xml version="1.0" standalone="no"?><!DOCTYPE svg PUBLIC "-//W3C//DTD SVG 1.1//EN" "http://www.w3.org/Graphics/SVG/1.1/DTD/svg11.dtd"><svg t="1724913838219" class="icon" viewBox="0 0 1024 1024" version="1.1" xmlns="http://www.w3.org/2000/svg" p-id="2619" xmlns:xlink="http://www.w3.org/1999/xlink" width="200" height="200"><path d="M124.903 440h774.194c7.097 0 12.903-3.6 12.903-8v-56c0-4.4-5.806-8-12.903-8H124.903c-7.097 0-12.903 3.6-12.903 8v56c0 4.4 5.806 8 12.903 8zM264 224c0 4.4 3.6 8 8 8h480c4.4 0 8-3.6 8-8v-56c0-4.4-3.6-8-8-8H272c-4.4 0-8 3.6-8 8v56z m491.04 356H268.96c-2.728 0-4.96 3.6-4.96 8v56c0 4.4 2.232 8 4.96 8h486.08c2.728 0 4.96-3.6 4.96-8v-56c0-4.4-2.232-8-4.96-8zM904 792H120c-4.4 0-8 3.6-8 8v56c0 4.4 3.6 8 8 8h784c4.4 0 8-3.6 8-8v-56c0-4.4-3.6-8-8-8z" fill="#606266" p-id="2620"></path></svg>