<?xml version="1.0" standalone="no"?><!DOCTYPE svg PUBLIC "-//W3C//DTD SVG 1.1//EN" "http://www.w3.org/Graphics/SVG/1.1/DTD/svg11.dtd"><svg t="1724914831416" class="icon" viewBox="0 0 1024 1024" version="1.1" xmlns="http://www.w3.org/2000/svg" p-id="26698" xmlns:xlink="http://www.w3.org/1999/xlink" width="200" height="200"><path d="M781.7 609.1l18.7-17.4c0.8-0.7 1.5-1.4 2.2-2.1 13.1-13.4 13.1-35.4 0-48.8L347.1 73.9c-13.1-13.4-34.5-13.4-47.6 0-13.1 13.4-13.1 35.4 0 48.8L412.9 239 133.8 525c-23.1 23.7-23.1 62.4 0 86.1L414.7 899c23.1 23.7 60.9 23.7 84 0l280.9-287.9c0.8-0.6 1.4-1.3 2.1-2z m-596.8-43l273.6-280.4 273.6 280.4H184.9zM928.1 800.6L843 628.3l-86.6 174.8c-8.6 15.4-13.5 33.2-13.5 52.3 0 57.5 44.8 104.2 100.1 104.2s100.1-46.7 100.1-104.2c0-20.1-5.5-38.8-15-54.8z" p-id="26699"></path></svg>