<?xml version="1.0" standalone="no"?><!DOCTYPE svg PUBLIC "-//W3C//DTD SVG 1.1//EN" "http://www.w3.org/Graphics/SVG/1.1/DTD/svg11.dtd"><svg t="1724913864466" class="icon" viewBox="0 0 1024 1024" version="1.1" xmlns="http://www.w3.org/2000/svg" p-id="3728" xmlns:xlink="http://www.w3.org/1999/xlink" width="200" height="200"><path d="M517.717333 233.528889c39.850667 0 72.647111 4.437333 98.360889 13.340444 29.781333 12.714667 44.714667 38.968889 44.714667 78.705778 0 35.925333-11.320889 60.871111-33.848889 74.979556-22.528 14.108444-51.854222 21.134222-87.978667 21.134222h-202.325333V233.528889h181.077333z m23.779556 329.386667c35.754667 0.426667 63.488 5.233778 83.2 14.506666 35.328 16.611556 53.020444 47.104 53.020444 91.477334 0 52.48-18.261333 88.007111-54.670222 106.524444-20.138667 10.012444-48.270222 15.047111-84.337778 15.047111h-202.069333v-227.555555h204.856889zM572.871111 85.333333H170.666667v853.333334h375.011555c42.268444 0 81.464889-3.868444 117.589334-11.576889 36.124444-7.708444 67.470222-22.016 94.065777-42.837334a233.528889 233.528889 0 0 0 58.936889-67.157333C840.988444 776.96 853.333333 731.619556 853.333333 681.045333c0-49.009778-10.808889-90.680889-32.426666-125.041777-21.617778-34.332444-53.646222-59.420444-96.142223-75.264 27.960889-14.677333 49.123556-30.862222 63.488-48.64 25.713778-31.630222 38.513778-73.500444 38.513778-125.610667 0-50.545778-12.743111-93.980444-38.200889-130.275556C746.268444 117.191111 674.360889 86.897778 572.871111 85.333333z" fill="#000000" p-id="3729"></path></svg>