<?xml version="1.0" standalone="no"?><!DOCTYPE svg PUBLIC "-//W3C//DTD SVG 1.1//EN" "http://www.w3.org/Graphics/SVG/1.1/DTD/svg11.dtd"><svg t="1724914515789" class="icon" viewBox="0 0 1024 1024" version="1.1" xmlns="http://www.w3.org/2000/svg" p-id="18626" xmlns:xlink="http://www.w3.org/1999/xlink" width="200" height="200"><path d="M27.306667 20.48h68.266666v68.266667h-68.266666zM27.306667 150.186667h68.266666v68.266666h-68.266666zM27.306667 273.066667h68.266666v68.266666h-68.266666zM27.306667 402.773333h68.266666v68.266667h-68.266666zM27.306667 525.653333h68.266666v68.266667h-68.266666zM27.306667 655.36h68.266666v68.266667h-68.266666zM27.306667 785.066667h68.266666v68.266666h-68.266666zM27.306667 907.946667h68.266666v68.266666h-68.266666z" fill="#AAAAAA" p-id="18627"></path><path d="M471.04 20.48h68.266667v68.266667h-68.266667zM471.04 150.186667h68.266667v68.266666h-68.266667zM471.04 273.066667h68.266667v68.266666h-68.266667zM471.04 402.773333h68.266667v68.266667h-68.266667zM471.04 525.653333h68.266667v68.266667h-68.266667zM471.04 655.36h68.266667v68.266667h-68.266667zM471.04 785.066667h68.266667v68.266666h-68.266667zM471.04 907.946667h68.266667v68.266666h-68.266667z" fill="#AAAAAA" p-id="18628"></path><path d="M914.773333 20.48h68.266667v68.266667h-68.266667zM928.426667 150.186667h68.266666v68.266666h-68.266666zM928.426667 273.066667h68.266666v68.266666h-68.266666zM928.426667 402.773333h68.266666v68.266667h-68.266666zM928.426667 525.653333h68.266666v68.266667h-68.266666zM928.426667 655.36h68.266666v68.266667h-68.266666zM928.426667 785.066667h68.266666v68.266666h-68.266666zM928.426667 907.946667h68.266666v68.266666h-68.266666z" fill="#AAAAAA" p-id="18629"></path><path d="M177.493333 907.946667h68.266667v68.266666h-68.266667zM327.68 907.946667h68.266667v68.266666h-68.266667zM471.04 907.946667h68.266667v68.266666h-68.266667zM621.226667 907.946667h68.266666v68.266666h-68.266666zM764.586667 907.946667h68.266666v68.266666h-68.266666zM914.773333 907.946667h68.266667v68.266666h-68.266667z" fill="#AAAAAA" p-id="18630"></path><path d="M177.493333 20.48h68.266667v68.266667h-68.266667zM327.68 20.48h68.266667v68.266667h-68.266667zM471.04 20.48h68.266667v68.266667h-68.266667zM621.226667 20.48h68.266666v68.266667h-68.266666zM771.413333 20.48h68.266667v68.266667h-68.266667zM914.773333 20.48h68.266667v68.266667h-68.266667z" fill="#AAAAAA" p-id="18631"></path><path d="M177.493333 464.213333h68.266667v68.266667h-68.266667zM327.68 464.213333h68.266667v68.266667h-68.266667zM621.226667 464.213333h68.266666v68.266667h-68.266666zM771.413333 464.213333h68.266667v68.266667h-68.266667z" fill="#AAAAAA" p-id="18632"></path><path d="M27.306667 880.64h962.56v102.4H27.306667z" fill="#444444" p-id="18633"></path></svg>