<?xml version="1.0" standalone="no"?><!DOCTYPE svg PUBLIC "-//W3C//DTD SVG 1.1//EN" "http://www.w3.org/Graphics/SVG/1.1/DTD/svg11.dtd"><svg t="1724914540500" class="icon" viewBox="0 0 1024 1024" version="1.1" xmlns="http://www.w3.org/2000/svg" p-id="18934" xmlns:xlink="http://www.w3.org/1999/xlink" width="200" height="200"><path d="M57.6 64h64v64h-64zM57.6 185.6h64v64h-64zM57.6 300.8h64v64h-64zM57.6 422.4h64v64h-64zM57.6 537.6h64v64h-64zM57.6 659.2h64v64h-64zM57.6 780.8h64v64h-64zM57.6 896h64v64h-64z" fill="#AAAAAA" p-id="18935"></path><path d="M473.6 64h64v64h-64zM473.6 185.6h64v64h-64zM473.6 300.8h64v64h-64zM473.6 422.4h64v64h-64zM473.6 537.6h64v64h-64zM473.6 659.2h64v64h-64zM473.6 780.8h64v64h-64zM473.6 896h64v64h-64z" fill="#AAAAAA" p-id="18936"></path><path d="M889.6 64h64v64h-64zM902.4 185.6h64v64h-64zM902.4 300.8h64v64h-64zM902.4 422.4h64v64h-64zM902.4 537.6h64v64h-64zM902.4 659.2h64v64h-64zM902.4 780.8h64v64h-64zM902.4 896h64v64h-64z" fill="#AAAAAA" p-id="18937"></path><path d="M198.4 896h64v64h-64zM339.2 896h64v64h-64zM473.6 896h64v64h-64zM614.4 896h64v64h-64zM748.8 896h64v64h-64zM889.6 896h64v64h-64z" fill="#AAAAAA" p-id="18938"></path><path d="M198.4 64h64v64h-64zM339.2 64h64v64h-64zM473.6 64h64v64h-64zM614.4 64h64v64h-64zM755.2 64h64v64h-64zM889.6 64h64v64h-64z" fill="#AAAAAA" p-id="18939"></path><path d="M198.4 480h64v64h-64zM339.2 480h64v64h-64zM614.4 480h64v64h-64zM755.2 480h64v64h-64z" fill="#AAAAAA" p-id="18940"></path><path d="M51.2 64h96v896H51.2z" fill="#444444" p-id="18941"></path></svg>