<?xml version="1.0" standalone="no"?><!DOCTYPE svg PUBLIC "-//W3C//DTD SVG 1.1//EN" "http://www.w3.org/Graphics/SVG/1.1/DTD/svg11.dtd"><svg t="1724914352986" class="icon" viewBox="0 0 1024 1024" version="1.1" xmlns="http://www.w3.org/2000/svg" p-id="12573" xmlns:xlink="http://www.w3.org/1999/xlink" width="200" height="200"><path d="M401.408 522.24h-196.608v-40.96h196.608l-47.104-47.104c-8.192-8.192-8.192-20.48 0-28.672 8.192-8.192 20.48-8.192 28.672 0l96.256 96.256-96.256 96.256c-8.192 8.192-20.48 8.192-28.672 0-8.192-8.192-8.192-20.48 0-28.672l47.104-47.104z m221.184-40.96h196.608v40.96h-196.608l47.104 47.104c8.192 8.192 8.192 20.48 0 28.672-8.192 8.192-20.48 8.192-28.672 0l-96.256-96.256 96.256-96.256c8.192-8.192 20.48-8.192 28.672 0 8.192 8.192 8.192 20.48 0 28.672l-47.104 47.104z m-202.752 286.72h40.96v61.44c0 34.816-26.624 61.44-61.44 61.44h-225.28c-34.816 0-61.44-26.624-61.44-61.44v-634.88c0-34.816 26.624-61.44 61.44-61.44h225.28c34.816 0 61.44 26.624 61.44 61.44v61.44h-40.96v-61.44c0-10.24-8.192-20.48-20.48-20.48h-225.28c-10.24 0-20.48 8.192-20.48 20.48v634.88c0 12.288 8.192 20.48 20.48 20.48h225.28c10.24 0 20.48-8.192 20.48-20.48v-61.44z m143.36 0h40.96v61.44c0 12.288 8.192 20.48 20.48 20.48h225.28c10.24 0 20.48-10.24 20.48-20.48v-634.88c0-12.288-8.192-20.48-20.48-20.48h-225.28c-10.24 0-20.48 10.24-20.48 20.48v63.488h-40.96V194.56c0-34.816 26.624-61.44 61.44-61.44h225.28c34.816 0 61.44 26.624 61.44 61.44v634.88c0 34.816-26.624 61.44-61.44 61.44h-225.28c-34.816 0-61.44-26.624-61.44-61.44v-61.44z" fill="#32373B" p-id="12574"></path></svg>