<?xml version="1.0" standalone="no"?><!DOCTYPE svg PUBLIC "-//W3C//DTD SVG 1.1//EN" "http://www.w3.org/Graphics/SVG/1.1/DTD/svg11.dtd"><svg t="1724914216892" class="icon" viewBox="0 0 1024 1024" version="1.1" xmlns="http://www.w3.org/2000/svg" p-id="4927" xmlns:xlink="http://www.w3.org/1999/xlink" width="200" height="200"><path d="M482 186v60h60v-60h-60z m0 120v60h60v-60h-60z m0 120v60h60v-60h-60z m0 120v60h60v-60h-60z m0 120v60h60v-60h-60z m0 120v60h60v-60h-60zM221 483v60h-60v-60h60z m120 0v60h-60v-60h60z m118 0v60h-58v-60h58z m162-1v60h-60v-60h60z m120 0v60h-60v-60h60z m119 0v60h-59v-60h59zM959 64h-60v60h60V64z m-120 0h-60v60h60V64z m-120 0h-60v60h60V64z m-120 0h-60v60h60V64z m-120 0h-60v60h60V64z m-120 0h-60v60h60V64z m-120 0h-60v60h60V64z m-120 0H63v60h56V64zM959 900h-60v60h60v-60z m-120 0h-60v60h60v-60z m-120 0h-60v60h60v-60z m-120 0h-60v60h60v-60z m-120 0h-60v60h60v-60z m-120 0h-60v60h60v-60z m-120 0h-60v60h60v-60z m-120 0H63v60h56v-60z" fill="#2c2c2c" p-id="4928"></path><path d="M123 961v-60H63v60h60z m0-120v-60H63v60h60z m0-120v-60H63v60h60z m0-120v-60H63v60h60z m0-120v-60H63v60h60z m0-120v-60H63v60h60z m0-120v-60H63v60h60zM960 960v-60h-60v60h60z m0-120v-60h-60v60h60z m0-120v-60h-60v60h60z m0-120v-60h-60v60h60z m0-120v-60h-60v60h60z m0-120v-60h-60v60h60z m0-120v-60h-60v60h60z" fill="#2c2c2c" p-id="4929"></path></svg>