<?xml version="1.0" standalone="no"?><!DOCTYPE svg PUBLIC "-//W3C//DTD SVG 1.1//EN" "http://www.w3.org/Graphics/SVG/1.1/DTD/svg11.dtd"><svg t="1724914563739" class="icon" viewBox="0 0 1024 1024" version="1.1" xmlns="http://www.w3.org/2000/svg" p-id="19240" xmlns:xlink="http://www.w3.org/1999/xlink" width="200" height="200"><path d="M64 64h64v64h-64zM64 185.6h64v64h-64zM64 300.8h64v64h-64zM64 422.4h64v64h-64zM64 537.6h64v64h-64zM64 659.2h64v64h-64zM64 780.8h64v64h-64zM64 896h64v64h-64z" fill="#AAAAAA" p-id="19241"></path><path d="M480 64h64v64H480zM480 185.6h64v64H480zM480 300.8h64v64H480zM480 422.4h64v64H480zM480 537.6h64v64H480zM480 659.2h64v64H480zM480 780.8h64v64H480zM480 896h64v64H480z" fill="#AAAAAA" p-id="19242"></path><path d="M896 64h64v64h-64zM902.4 185.6h64v64h-64zM902.4 300.8h64v64h-64zM902.4 422.4h64v64h-64zM902.4 537.6h64v64h-64zM902.4 659.2h64v64h-64zM902.4 780.8h64v64h-64zM902.4 896h64v64h-64z" fill="#AAAAAA" p-id="19243"></path><path d="M204.8 896h64v64h-64zM339.2 896h64v64h-64zM480 896h64v64H480zM620.8 896h64v64h-64zM755.2 896h64v64h-64zM896 896h64v64h-64z" fill="#AAAAAA" p-id="19244"></path><path d="M204.8 64h64v64h-64zM345.6 64h64v64h-64zM480 64h64v64H480zM620.8 64h64v64h-64zM761.6 64h64v64h-64zM896 64h64v64h-64z" fill="#AAAAAA" p-id="19245"></path><path d="M204.8 480h64v64h-64zM345.6 480h64v64h-64zM620.8 480h64v64h-64zM761.6 480h64v64h-64z" fill="#AAAAAA" p-id="19246"></path><path d="M883.2 64h96v896h-96z" fill="#444444" p-id="19247"></path></svg>