<?xml version="1.0" standalone="no"?><!DOCTYPE svg PUBLIC "-//W3C//DTD SVG 1.1//EN" "http://www.w3.org/Graphics/SVG/1.1/DTD/svg11.dtd"><svg t="1724914523298" class="icon" viewBox="0 0 1024 1024" version="1.1" xmlns="http://www.w3.org/2000/svg" p-id="18780" xmlns:xlink="http://www.w3.org/1999/xlink" width="200" height="200"><path d="M34.133333 68.266667h68.266667v68.266666h-68.266667zM34.133333 197.973333h68.266667v68.266667h-68.266667zM34.133333 320.853333h68.266667v68.266667h-68.266667zM34.133333 450.56h68.266667v68.266667h-68.266667zM34.133333 573.44h68.266667v68.266667h-68.266667zM34.133333 703.146667h68.266667v68.266666h-68.266667zM34.133333 832.853333h68.266667v68.266667h-68.266667zM34.133333 955.733333h68.266667v68.266667h-68.266667z" fill="#AAAAAA" p-id="18781"></path><path d="M477.866667 68.266667h68.266666v68.266666H477.866667zM477.866667 197.973333h68.266666v68.266667H477.866667zM477.866667 320.853333h68.266666v68.266667H477.866667zM477.866667 450.56h68.266666v68.266667H477.866667zM477.866667 573.44h68.266666v68.266667H477.866667zM477.866667 703.146667h68.266666v68.266666H477.866667zM477.866667 832.853333h68.266666v68.266667H477.866667zM477.866667 955.733333h68.266666v68.266667H477.866667z" fill="#AAAAAA" p-id="18782"></path><path d="M921.6 68.266667h68.266667v68.266666h-68.266667zM928.426667 197.973333h68.266666v68.266667h-68.266666zM928.426667 320.853333h68.266666v68.266667h-68.266666zM928.426667 450.56h68.266666v68.266667h-68.266666zM928.426667 573.44h68.266666v68.266667h-68.266666zM928.426667 703.146667h68.266666v68.266666h-68.266666zM928.426667 832.853333h68.266666v68.266667h-68.266666zM928.426667 955.733333h68.266666v68.266667h-68.266666z" fill="#AAAAAA" p-id="18783"></path><path d="M184.32 955.733333h68.266667v68.266667h-68.266667zM327.68 955.733333h68.266667v68.266667h-68.266667zM477.866667 955.733333h68.266666v68.266667H477.866667zM628.053333 955.733333h68.266667v68.266667h-68.266667zM771.413333 955.733333h68.266667v68.266667h-68.266667zM921.6 955.733333h68.266667v68.266667h-68.266667z" fill="#AAAAAA" p-id="18784"></path><path d="M184.32 68.266667h68.266667v68.266666h-68.266667zM334.506667 68.266667h68.266666v68.266666h-68.266666zM477.866667 68.266667h68.266666v68.266666H477.866667zM628.053333 68.266667h68.266667v68.266666h-68.266667zM778.24 68.266667h68.266667v68.266666h-68.266667zM921.6 68.266667h68.266667v68.266666h-68.266667z" fill="#AAAAAA" p-id="18785"></path><path d="M184.32 512h68.266667v68.266667h-68.266667zM334.506667 512h68.266666v68.266667h-68.266666zM628.053333 512h68.266667v68.266667h-68.266667zM778.24 512h68.266667v68.266667h-68.266667z" fill="#AAAAAA" p-id="18786"></path><path d="M34.133333 54.613333h955.733334v102.4H34.133333z" fill="#444444" p-id="18787"></path></svg>